<?xml version="1.0" standalone="no"?>
<!DOCTYPE svg PUBLIC "-//W3C//DTD SVG 20010904//EN"
 "http://www.w3.org/TR/2001/REC-SVG-20010904/DTD/svg10.dtd">
<svg version="1.0" xmlns="http://www.w3.org/2000/svg"
 width="92.000000pt" height="92.000000pt" viewBox="0 0 92.000000 92.000000"
 preserveAspectRatio="xMidYMid meet">

<g transform="translate(0.000000,92.000000) scale(0.100000,-0.100000)"
fill="#000000" stroke="none">
<path d="M533 690 c-24 -10 -43 -39 -43 -66 0 -16 1 -16 20 1 11 10 41 24 67
31 47 12 47 13 13 13 -20 1 -41 -4 -47 -10 -6 -6 -17 -9 -25 -7 -7 3 4 14 27
26 39 21 31 29 -12 12z"/>
<path d="M208 624 c-10 -9 10 -76 30 -103 10 -14 29 -28 42 -29 21 -3 22 -1
17 30 -11 68 -63 128 -89 102z"/>
<path d="M757 493 c18 -68 -12 -139 -88 -207 -72 -66 -118 -81 -244 -81 -101
0 -115 2 -169 29 -33 16 -61 37 -64 48 -7 27 -25 17 -36 -20 -10 -37 -3 -50
18 -33 11 10 30 4 93 -26 74 -36 83 -38 178 -38 89 0 106 3 150 27 67 35 126
100 170 187 20 40 42 71 50 71 22 0 0 33 -37 55 l-29 17 8 -29z"/>
</g>
</svg>
